<svg width="11" height="11" viewBox="0 0 11 11" fill="none" xmlns="http://www.w3.org/2000/svg">
<g clip-path="url(#clip0_435_639)">
<path d="M5.19814 8.34442L0.124392 3.2566C-0.0417463 3.0899 -0.041467 2.82001 0.125251 2.6536C0.291948 2.48731 0.561984 2.48774 0.728251 2.65446L5.50002 7.43944L10.2718 2.65428C10.4381 2.48759 10.7079 2.48716 10.8746 2.65342C10.9582 2.73685 11 2.84614 11 2.95543C11 3.06444 10.9585 3.1733 10.8755 3.25657L5.80187 8.34442C5.72199 8.42471 5.61328 8.46976 5.50002 8.46976C5.38675 8.46976 5.27817 8.42458 5.19814 8.34442Z" fill="white"/>
</g>
<defs>
<clipPath id="clip0_435_639">
<rect width="11" height="11" fill="white" transform="matrix(0 1 1 0 0 0)"/>
</clipPath>
</defs>
</svg>
