<svg width="31" height="23" viewBox="0 0 31 23" fill="none" xmlns="http://www.w3.org/2000/svg">
<g clip-path="url(#clip0_395_366)">
<path d="M29.7891 10.2891H1.21094C0.542137 10.2891 0 10.8312 0 11.5C0 12.1688 0.542137 12.7109 1.21094 12.7109H29.7891C30.4579 12.7109 31 12.1688 31 11.5C31 10.8312 30.4579 10.2891 29.7891 10.2891Z" fill="#212D55"/>
<path d="M29.7891 0.601562H1.21094C0.542137 0.601562 0 1.1437 0 1.8125C0 2.4813 0.542137 3.02344 1.21094 3.02344H29.7891C30.4579 3.02344 31 2.4813 31 1.8125C31 1.1437 30.4579 0.601562 29.7891 0.601562Z" fill="#212D55"/>
<path d="M29.7891 19.9766H1.21094C0.542137 19.9766 0 20.5187 0 21.1875C0 21.8563 0.542137 22.3984 1.21094 22.3984H29.7891C30.4579 22.3984 31 21.8563 31 21.1875C31 20.5187 30.4579 19.9766 29.7891 19.9766Z" fill="#212D55"/>
</g>
<defs>
<clipPath id="clip0_395_366">
<rect width="31" height="23" fill="white"/>
</clipPath>
</defs>
</svg>
