<svg width="31" height="31" viewBox="0 0 31 31" fill="none" xmlns="http://www.w3.org/2000/svg">
<circle cx="15.5" cy="15.5" r="15.5" fill="white"/>
<path d="M16.3287 15.5L22.8284 9.00029C23.0572 8.77145 23.0572 8.40044 22.8284 8.17163C22.5995 7.94282 22.2285 7.94279 21.9997 8.17163L15.5 14.6714L9.00029 8.17163C8.77145 7.94279 8.40044 7.94279 8.17163 8.17163C7.94282 8.40047 7.94279 8.77148 8.17163 9.00029L14.6713 15.5L8.17163 21.9997C7.94279 22.2286 7.94279 22.5996 8.17163 22.8284C8.28603 22.9428 8.436 23 8.58597 23C8.73594 23 8.88588 22.9428 9.00032 22.8284L15.5 16.3287L21.9997 22.8284C22.1141 22.9428 22.2641 23 22.414 23C22.564 23 22.7139 22.9428 22.8284 22.8284C23.0572 22.5996 23.0572 22.2286 22.8284 21.9997L16.3287 15.5Z" fill="#31BEF4"/>
</svg>
